<svg width="48" height="48" viewBox="0 96 960 960" xmlns="http://www.w3.org/2000/svg"><path d="M453 776h60V536h-60v240zm26.982-314q14.018 0 23.518-9.2T513 430q0-14.45-9.482-24.225-9.483-9.775-23.5-9.775-14.018 0-23.518 9.775T447 430q0 13.6 9.482 22.8 9.483 9.2 23.5 9.2zm.284 514q-82.734 0-155.5-31.5t-127.27-86q-54.5-54.5-86-127.34t-31.5-155.66 31.5-155.66q31.5-72.841 86-126.84t127.34-85.5q72.84-31.5 155.66-31.5t155.66 31.5q72.841 31.5 126.84 85.5t85.5 127q31.5 73 31.5 155.73t-31.5 155.5-85.5 127.08q-54 54.316-127 86t-155.73 31.684zm.234-60Q622 916 721 816.5t99-241Q820 434 721.188 335q-98.813-99-241.19-99-141 0-240.5 98.812-99.5 98.813-99.5 241.19 0 141 99.5 240.5t241 99.5z"/></svg>