<svg version="1.1" id="_x32_" xmlns="http://www.w3.org/2000/svg" viewBox="0 0 512 512" xml:space="preserve"><style>.st0{fill:#000}</style><path class="st0" d="M442.197 152.944c-1.243-3.158-2.686-6.102-4.365-8.845-2.522-4.1-5.552-7.758-9.452-10.631-1.95-1.429-4.13-2.643-6.545-3.501a22.842 22.842 0 0 0-7.702-1.358c-3.165 0-6.259.701-9.009 1.865-2.415 1.036-4.58 2.408-6.502 3.98-3.372 2.772-6.044 6.136-8.316 9.874-3.387 5.616-5.866 12.131-7.581 19.362-1.722 7.201-2.636 15.132-2.636 23.463 0 7.259.7 14.189 2.008 20.619.979 4.844 2.307 9.381 3.979 13.574 1.244 3.158 2.694 6.116 4.365 8.852 2.522 4.094 5.544 7.752 9.452 10.624a25.84 25.84 0 0 0 6.544 3.515 23.001 23.001 0 0 0 7.695 1.343c3.172.007 6.273-.686 9.016-1.858 2.415-1.028 4.572-2.408 6.502-3.986 3.372-2.758 6.051-6.13 8.316-9.867 3.387-5.615 5.866-12.138 7.588-19.354 1.708-7.216 2.629-15.132 2.629-23.462 0-7.259-.7-14.204-2.015-20.634-.97-4.831-2.298-9.375-3.971-13.575zm-18.246 50.312c-.743 3.643-1.715 6.93-2.829 9.724-.829 2.093-1.736 3.908-2.637 5.372-1.343 2.208-2.679 3.594-3.5 4.166-.408.3-.679.414-.793.457l-.057.014c-.028-.007-.171-.029-.514-.243-.622-.371-1.822-1.414-3.108-3.286-1.958-2.801-4.009-7.33-5.43-12.938-1.444-5.595-2.315-12.253-2.315-19.369 0-5.787.571-11.26 1.558-16.111.742-3.637 1.721-6.93 2.829-9.731.829-2.094 1.736-3.894 2.63-5.366 1.343-2.201 2.686-3.587 3.501-4.172.414-.301.679-.415.793-.451l.057-.021c.043.007.178.043.514.25.628.364 1.829 1.408 3.122 3.294 1.95 2.786 4 7.33 5.423 12.924 1.442 5.608 2.315 12.267 2.315 19.383-.002 5.773-.573 11.245-1.559 16.104z"/><path class="st0" d="M498.632 116.606c-3.322-16.332-7.78-31.536-13.224-45.253-4.08-10.288-8.731-19.748-13.918-28.221-7.787-12.704-16.782-23.256-27.192-30.894-5.201-3.808-10.774-6.873-16.676-8.988C421.721 1.136 415.484 0 409.14 0H102.867v.015h-.007V0c-.064 0-.135.007-.207.007-.057 0-.128.008-.193.008-7.38.05-14.596 1.643-21.326 4.508-5.994 2.558-11.617 6.08-16.846 10.367-9.16 7.523-17.183 17.34-24.206 28.95-10.518 17.41-18.835 38.901-24.607 63.207-5.766 24.305-8.966 51.44-8.974 80.105V512h12.16c3.244 0 6.316-.342 9.16-1.029a34.304 34.304 0 0 0 6.838-2.386c3.607-1.714 6.43-3.814 8.637-5.601 1.672-1.357 3.03-2.558 4.187-3.493 1.744-1.422 2.972-2.222 4.201-2.758a10.667 10.667 0 0 1 2.1-.65 16.524 16.524 0 0 1 3.158-.286c1.543 0 2.657.165 3.558.372a9.809 9.809 0 0 1 2.043.714c1.086.515 2.222 1.279 3.758 2.523 1.143.921 2.471 2.1 4.122 3.444 2.451 2 5.68 4.394 9.91 6.223 2.1.915 4.437 1.664 6.944 2.172 2.501.5 5.158.757 7.959.757 3.244 0 6.316-.342 9.16-1.029a34.186 34.186 0 0 0 6.844-2.386c3.608-1.714 6.43-3.814 8.646-5.601 1.657-1.357 3.015-2.558 4.172-3.493 1.744-1.422 2.972-2.222 4.201-2.758a10.796 10.796 0 0 1 2.1-.65 16.605 16.605 0 0 1 3.165-.286c1.536 0 2.65.165 3.551.372a9.84 9.84 0 0 1 2.044.714c1.086.515 2.214 1.279 3.751 2.523 1.143.921 2.478 2.1 4.122 3.444 2.458 1.993 5.68 4.394 9.91 6.223a34.901 34.901 0 0 0 6.938 2.172c2.5.5 5.172.757 7.966.757 3.25 0 6.315-.342 9.159-1.029a34.15 34.15 0 0 0 6.838-2.386c3.615-1.714 6.43-3.814 8.644-5.601 1.672-1.357 3.022-2.558 4.18-3.493 1.751-1.422 2.973-2.222 4.201-2.758a10.73 10.73 0 0 1 2.094-.65 16.612 16.612 0 0 1 3.172-.286c1.536 0 2.658.165 3.551.372a9.933 9.933 0 0 1 2.043.714c1.086.515 2.222 1.279 3.751 2.523 1.143.921 2.472 2.1 4.122 3.444 2.458 1.993 5.68 4.394 9.91 6.223 2.1.915 4.444 1.664 6.944 2.172 2.5.5 5.158.757 7.959.757 3.243 0 6.316-.342 9.159-1.029a33.354 33.354 0 0 0 6.845-2.4c3.608-1.715 6.423-3.8 8.645-5.587 1.658-1.357 3.015-2.558 4.165-3.493 1.751-1.422 2.972-2.222 4.202-2.758a10.625 10.625 0 0 1 2.1-.65 16.481 16.481 0 0 1 3.165-.286c1.536 0 2.658.165 3.558.372a9.685 9.685 0 0 1 2.03.714c1.086.515 2.229 1.272 3.757 2.523 1.144.921 2.472 2.093 4.123 3.444 2.451 1.993 5.673 4.394 9.91 6.223 2.1.915 4.43 1.664 6.93 2.172 2.5.5 5.172.757 7.966.757h12.154V374.296h72.06c7.523.007 14.882-1.607 21.726-4.53 5.994-2.543 11.61-6.072 16.847-10.367 9.16-7.508 17.176-17.34 24.206-28.942 10.517-17.418 18.834-38.895 24.613-63.201 5.766-24.305 8.967-51.455 8.967-80.104-.003-24.956-2.433-48.755-6.87-70.546zm-176.884-9.559c-5.773 24.305-8.966 51.44-8.974 80.105v5.665h-20.212v11.338h20.212v277.58c-.414-.342-.843-.7-1.314-1.086-2.45-2-5.673-4.401-9.902-6.23a34.808 34.808 0 0 0-6.944-2.157c-2.5-.514-5.166-.772-7.959-.765-3.244-.007-6.316.343-9.16 1.022a34.196 34.196 0 0 0-6.844 2.4c-3.608 1.707-6.43 3.8-8.638 5.594-1.664 1.35-3.022 2.551-4.18 3.48-1.743 1.429-2.972 2.244-4.201 2.772a9.25 9.25 0 0 1-2.093.643c-.822.172-1.844.286-3.165.286-1.544 0-2.658-.157-3.551-.372a10.049 10.049 0 0 1-2.044-.708c-1.086-.522-2.222-1.279-3.751-2.522-1.143-.922-2.479-2.1-4.129-3.444-2.451-2-5.673-4.401-9.902-6.23a34.961 34.961 0 0 0-6.945-2.157c-2.501-.514-5.165-.772-7.959-.772-3.25 0-6.315.35-9.159 1.03a34.228 34.228 0 0 0-6.845 2.4c-3.615 1.707-6.43 3.8-8.644 5.594-1.664 1.35-3.015 2.544-4.172 3.48-1.743 1.429-2.972 2.244-4.201 2.772a9.445 9.445 0 0 1-2.1.643c-.829.172-1.844.286-3.165.286-1.536 0-2.652-.157-3.551-.372a10.179 10.179 0 0 1-2.044-.708c-1.086-.522-2.222-1.279-3.751-2.522-1.143-.922-2.48-2.1-4.123-3.444-2.457-2-5.679-4.401-9.916-6.23a34.67 34.67 0 0 0-6.93-2.157c-2.508-.514-5.172-.772-7.966-.772-3.25 0-6.322.35-9.159 1.03a33.984 33.984 0 0 0-6.838 2.4c-3.615 1.707-6.43 3.8-8.645 5.594-1.672 1.35-3.022 2.544-4.18 3.48-1.751 1.429-2.972 2.244-4.194 2.772a9.664 9.664 0 0 1-2.1.643c-.829.172-1.843.286-3.172.286-1.536 0-2.658-.157-3.558-.372a10.099 10.099 0 0 1-2.036-.708c-1.093-.522-2.222-1.279-3.758-2.522-1.143-.922-2.48-2.1-4.123-3.444-2.457-2-5.679-4.401-9.91-6.23a34.788 34.788 0 0 0-6.944-2.157c-2.5-.514-5.165-.772-7.966-.772-3.244 0-6.316.35-9.152 1.03a34.228 34.228 0 0 0-6.845 2.4c-3.608 1.707-6.43 3.8-8.644 5.594a65.48 65.48 0 0 0-1.493 1.236V204.156H44.24v-11.338H30.807v-5.665c0-23.377 2.286-45.604 6.373-65.702 3.065-15.061 7.144-28.921 12.003-41.131 3.629-9.152 7.702-17.383 12.053-24.499 6.523-10.674 13.724-18.79 20.826-23.963 3.544-2.615 7.059-4.486 10.503-5.715s6.809-1.829 10.26-1.829h257.897c-5.208 5.716-9.98 12.274-14.368 19.526-10.518 17.41-18.834 38.901-24.606 63.207zM337.08 349.99v-37.244c3 6.537 6.216 12.718 9.709 18.425 4.28 6.974 8.931 13.26 13.968 18.819H337.08zm137.739-97.151c-3.065 15.061-7.144 28.921-11.995 41.139-3.637 9.159-7.709 17.389-12.06 24.491-6.523 10.689-13.718 18.791-20.819 23.978-3.551 2.6-7.066 4.472-10.517 5.715-3.45 1.229-6.83 1.829-10.288 1.829-4.108-.014-8.102-.843-12.217-2.586-3.594-1.529-7.274-3.779-10.96-6.802-6.458-5.272-12.91-12.96-18.812-22.734-8.874-14.632-16.475-33.908-21.755-56.228-5.301-22.319-8.316-47.654-8.316-74.489 0-23.377 2.286-45.604 6.373-65.702 3.072-15.061 7.151-28.921 12.003-41.131 3.629-9.152 7.702-17.383 12.06-24.499 6.523-10.674 13.718-18.79 20.819-23.963 3.551-2.6 7.059-4.486 10.503-5.715 3.458-1.243 6.83-1.829 10.302-1.829 4.101 0 8.094.829 12.21 2.579 3.601 1.536 7.274 3.773 10.96 6.794 6.459 5.287 12.917 12.96 18.818 22.734 8.867 14.646 16.468 33.922 21.756 56.234 5.294 22.312 8.316 47.654 8.309 74.496 0 23.372-2.287 45.598-6.374 65.689z"/><path class="st0" d="M67.416 192.817H92.48v11.338H67.416zM242.858 192.817h25.062v11.338h-25.062zM125.901 192.817h25.063v11.338h-25.063zM184.379 192.817h25.063v11.338h-25.063z"/></svg>